<?xml version="1.0" encoding="UTF-8"?>
<!-- Pointbreak logo — single-color variant (shape unchanged from
     public/pointbreak-logo.svg). Every fill is currentColor, so the mark
     inherits its color from CSS — for favicons, small sizes, and
     single-color contexts (the overlapping wave paths merge into one
     silhouette). -->
<svg xmlns="http://www.w3.org/2000/svg" viewBox="0 0 662.27 655.11">
  <path fill="currentColor" d="M543.1,522.11c-2.02,2.14-4.07,4.25-6.16,6.34-31.7,31.7-69.41,55.22-110.56,69.47-85.5,5.6-175.59-31.04-227.94-101.38-46.19-62.09-43.8-139.64-5-202.69l10.5-15.48-.5,3.49h0s-3,5-3,5c-11.88,37.83-12.46,85.02-1,122.81,21.71,71.54,84.44,126.21,154.5,143.29,71.3,17.37,130.21,8.62,189.16-30.85Z"/>
  <path fill="currentColor" d="M441.68,207.51c.09.08,11.84,11.02,11.9,11.08,8.77,8.47,13.07,15.53,15.86,29.33,1.67,8.28,3.32,16.7,2.6,25.19-.32,4.75-1.59,9.08-1.78,12.11-.06.71.09,1.59.8.71,4.93-7.37,7.65-16.61,10.38-25.03,11.15-47.94-24.23-89.81-63.5-112.33-11.52-5.08-23.46-10.69-35-13.98-24.12-6.89-50.08-9.79-77-6.99-28.36,2.95-58.62,13.81-84,29.95-58.25,37.04-95.02,101.48-107.5,165.25-21.42,109.58,24.37,219.78,125.5,274.09,3.31,1.78,6.97,3.31,10.5,4.99h.01c.97.46,1.95.92,2.93,1.37.86.4,1.74.79,2.61,1.18-49.48-12.96-94.84-38.85-131.97-75.98-5.84-5.85-11.41-11.89-16.69-18.13l-6.89-15.78c-30.81-77.53-28.99-164.02,6-239.63,33.67-72.75,92.47-128.87,171.5-145.29,6.62-1.37,11.99-2.11,18-2.99,13.67-2,37.64-2.4,51-1,21.37,2.24,40.96,5.61,60,13.98,57.76,21.66,111.11,79.07,97.5,144.28-4.13,15.18-10.46,29.85-21.84,41.18-15.46,15.81-38.4,25.88-60.72,23.01-8.54-1.06-7.09-5.87-3.29-11.58,3.19-4.63,6.98-9.19,9.6-14.13,8.29-15.28,10.68-33.09,5.25-49.46-2.75-10.24-10.66-17.28-19.5-23.47-75.29-38.91-129.74,41.13-104.5,110.34,20.89,57.27,77.04,89.82,134.5,93.36,17.28,1.06,40.61-2.71,56-6.99,47.2-13.12,91.26-46.02,118.5-87.37,1.11-1.69,2.46-4.03,3.84-6.62-.64,18.99-3.09,37.67-7.27,55.83-27.08,33-64.09,56.28-104.07,68.11-49.18,14.56-97.68,10.86-143-10.98-54.69-26.37-91.41-78.86-91.41-137.91,0-7.69.62-15.49,1.91-23.35l2-7.49-2,2.5c-13.16,25.81-18.81,56.85-13,85.87,12.57,62.73,58.88,103.07,117.5,124.31,15.86,5.75,27.78,9.11,44,11.98,19.08,3.39,41.89,4.4,62,2,3.82-.45,8.45-2.34,12-2.99.87-.16,3.83-.62,3.5.99l-22.49,5.99h-.01c-99.35,19.13-209.77-15.33-243.5-118.32-.37-1.12-.72-2.25-1.07-3.38-14.84-48.13-10.67-97.88,20.21-138.74.29-.38.58-.76.88-1.14.71-.93,1.44-1.84,2.18-2.76,1.47-1.81,3-3.61,4.59-5.39.38-.46.79-.91,1.21-1.36.41-.45.83-.89,1.24-1.34,42.37-47.2,117.96-50.77,163.38-29.54"/>
  <path fill="currentColor" d="M437.86,208.35c.55.27,1.09.54,1.62.81"/>
  <path fill="currentColor" d="M621.31,395.09c1.44-5.99,2.7-12.04,3.78-18.17-.26.57-.53,1.13-.65,1.8-1,5.62-1.97,11.02-3.13,16.37Z"/>
  <path fill="currentColor" d="M203.44,281.86l.5-3.49-10.5,15.48c-38.8,63.05-41.19,140.6,5,202.69,52.35,70.34,142.44,106.98,227.94,101.38-30.43,10.56-62.74,16.05-95.9,16.05-25.47,0-50.45-3.24-74.45-9.53-.02,0-.03,0-.04-.01-.87-.39-1.75-.78-2.61-1.18-.98-.45-1.96-.91-2.93-1.37h-.01l-2.49-2.99h-.01c-47.29-35.03-82.28-86.52-96.5-141.29-6.84-26.35-9.37-57.98-7-86.87.03-.36.97-.63,1-1,7.72-73.31,44.03-144.52,112.5-182.22,17.06-9.4,32.23-13.51,50-16.98,51.2-9.98,111.67,4.88,145.43,47.83.01.01.22.21.36.35-.04-.02-.08-.07-.15-.12-.06-.06-.14-.13-.23-.21-.01-.01-.02-.02-.03-.02-.5-.45-1.02-.88-1.54-1.31-.52-.42-1.06-.84-1.6-1.26-.53-.4-1.07-.79-1.62-1.18-.59-.42-1.19-.83-1.81-1.24-1.61-1.05-3.3-2.07-5.07-3.05-.12-.06-.24-.13-.37-.2-.6-.32-1.22-.63-1.83-.96-43.71-23.87-125.83-25.07-171.8,25.43-.41.45-.83.89-1.24,1.34-.42.45-.83.9-1.21,1.36-1.61,1.77-3.14,3.56-4.59,5.39-.76.91-1.48,1.83-2.18,2.76-.3.38-.59.76-.88,1.14-29.37,39.21-34.92,90.73-20.21,138.74.35,1.13.7,2.26,1.07,3.38,33.73,102.99,144.15,137.45,243.5,118.32h.01l22.49-5.99c.33-1.61-2.63-1.15-3.5-.99-3.55.65-8.18,2.54-12,2.99-20.11,2.4-42.92,1.39-62-2-16.22-2.87-28.14-6.23-44-11.98-58.62-21.24-104.93-61.58-117.5-124.31-5.81-29.02-.16-60.06,13-85.87h.01l1.99-2.5-2,7.49c-1.29,7.86-1.91,15.66-1.91,23.35,0,59.05,36.72,111.54,91.41,137.91,45.32,21.84,93.82,25.54,143,10.98,39.98-11.83,76.99-35.11,104.07-68.11-11.49,49.97-36.03,96.05-71.91,134.12-58.95,39.47-117.86,48.22-189.16,30.85-70.06-17.08-132.79-71.75-154.5-143.29-11.46-37.79-10.88-84.98,1-122.81h.01l2.99-4.99h0Z"/>
  <path fill="currentColor" d="M250.45,601.88c-3.54-1.68-7.19-3.22-10.5-4.99-101.14-54.31-146.93-164.51-125.5-274.09,12.47-63.77,49.25-128.21,107.5-165.25,25.38-16.14,55.64-27.01,84-29.95s52.87.1,77,6.99c10.98,3.13,22.33,8.37,33.34,13.25,1.11.49,2.18,1.03,3.23,1.64,38.21,22.48,72.18,63.22,62.28,109.88-.22,1.03-.51,2.04-.83,3.04-2.58,8-5.26,16.6-9.89,23.54-.72.87-.86.01-.81-.71.19-3.02,1.46-7.37,1.78-12.12.69-8.14-.84-16.22-2.4-24.18-.13-.68-.25-1.36-.46-2.02-3.4-10.59-7.65-18.46-15.74-28.45-34.41-42.5-94.27-57.92-145.5-47.93-17.77,3.46-32.94,7.58-50,16.97-68.47,37.71-104.78,108.91-112.5,182.23-.04.36-.97.64-1,1-2.38,28.89.16,60.52,7,86.87,13.92,53.63,47.75,104.1,93.54,139.06,1.95,1.49,3.75,3.18,5.33,5.06l.13.15Z"/>
  <path fill="none" d="M629.58,315.67c-.06,16.28,0,40.11-4.05,56.01-.14.79-.26,1.58-.4,2.37h0c-.05.27-.09.54-.15.8-1.03,5.81-2.23,11.55-3.6,17.23-2.08,8.64-4.53,17.13-7.34,25.45-.01.02-.02.04-.02.07-10.12,29.92-24.89,57.69-43.46,82.45,0,.02-.02.04-.04.05-28.51,38.04-65.96,69-109.24,89.75-5.05,2.42-10.18,4.7-15.38,6.83h-.01c-32.3,13.28-67.43,21.01-104.27,22.02-2.75.08-5.5.12-8.27.12-16.82,0-33.32-1.4-49.37-4.09-.01-.01-.02-.01-.03-.01-68.64-11.52-129.27-46.64-173.26-96.73h-.01c-42.02-47.85-68.86-109.34-73-176.98-.39-6.09-.57-12.24-.57-18.43,0-10.5.54-20.88,1.61-31.1,7.8-74.74,43.38-141.21,96.25-188.9l.06-.06c52.21-47.07,121.24-75.84,197.01-76.16"/>
  <path fill="currentColor" d="M330.48,643.96c-86,0-166.86-33.49-227.68-94.31C41.99,488.84,8.5,407.99,8.5,321.98S41.99,155.12,102.81,94.31C163.62,33.49,244.48,0,330.48,0s166.86,33.49,227.68,94.31,94.31,141.67,94.31,227.68-33.49,166.86-94.31,227.67c-60.81,60.81-141.67,94.31-227.68,94.31ZM330.48,30c-77.99,0-151.31,30.37-206.46,85.52S38.5,243.99,38.5,321.98s30.37,151.31,85.52,206.46c55.15,55.15,128.47,85.52,206.46,85.52s151.31-30.37,206.46-85.52c55.15-55.15,85.52-128.47,85.52-206.46s-30.37-151.31-85.52-206.46S408.47,30,330.48,30Z"/>
</svg>
